<svg class="icon icon-download" xmlns="http://www.w3.org/2000/svg" viewBox="0 0 16 16" width="16" height="16" aria-label="Download icon">
	<path d="M15.5,14.21a1.3,1.3,0,0,1-1.29,1.29H1.79a1.25,1.25,0,0,1-.91-.38,1.25,1.25,0,0,1-.38-.91V11.16a1.23,1.23,0,0,1,.38-.9,1.22,1.22,0,0,1,.91-.38h2.9L3.05,8.23a1.13,1.13,0,0,1-.34-.85,1.23,1.23,0,0,1,.34-.82,1.07,1.07,0,0,1,.82-.35H5.42V1.67A1.1,1.1,0,0,1,5.76.84,1.1,1.1,0,0,1,6.59.5H9.41a1.1,1.1,0,0,1,.83.34,1.1,1.1,0,0,1,.34.83V6.21h1.55a1.07,1.07,0,0,1,.82.35,1.23,1.23,0,0,1,.34.82,1.13,1.13,0,0,1-.34.85L11.31,9.88h2.9a1.22,1.22,0,0,1,.91.38,1.23,1.23,0,0,1,.38.9Zm-1-3.29a.34.34,0,0,0-.25-.11H10.37L8.82,12.34a1.14,1.14,0,0,1-1.64,0L5.63,10.81H1.79a.34.34,0,0,0-.25.11.31.31,0,0,0-.1.24v3.05a.34.34,0,0,0,.35.35H14.21a.34.34,0,0,0,.35-.35V11.16A.31.31,0,0,0,14.46,10.92ZM8,11.75a.32.32,0,0,0,.18-.06l4.1-4.13a.22.22,0,0,0,.06-.26.21.21,0,0,0-.21-.15H9.64V1.67a.21.21,0,0,0-.07-.16.23.23,0,0,0-.16-.07H6.59a.23.23,0,0,0-.16.07.21.21,0,0,0-.07.16V7.15H3.87a.21.21,0,0,0-.21.15.22.22,0,0,0,.06.26l4.1,4.13A.32.32,0,0,0,8,11.75Zm2.87,1a.53.53,0,0,0-.17.41.56.56,0,0,0,.17.41.58.58,0,0,0,.82,0,.57.57,0,0,0,.18-.41.54.54,0,0,0-.18-.41.56.56,0,0,0-.82,0Zm2.7.82a.6.6,0,0,1-.41.17.6.6,0,0,1-.59-.58.62.62,0,0,1,.59-.59.6.6,0,0,1,.58.59A.6.6,0,0,1,13.57,13.57Z"/>
</svg>
