<svg class="icon icon-quote" xmlns="http://www.w3.org/2000/svg" viewBox="0 0 16 16" width="16" height="16" aria-label="Quote icon">
<path d="M13.85,14.16a2.76,2.76,0,0,1-2.13,1.34c-.7,0-2.09-.35-3.3-2.41A7.81,7.81,0,0,1,7.71,8,9.49,9.49,0,0,1,9.84,2.91,7.58,7.58,0,0,1,14.56.5c.47,0,.94.27.94.54s0,.26-.47.53a14.38,14.38,0,0,0-1.89,1.07,4.9,4.9,0,0,0-1.89,3.75,4.25,4.25,0,0,0,1.42,3.22,5.23,5.23,0,0,1,1.41,1.87A3.54,3.54,0,0,1,13.85,14.16Z" class="icon-quote-outer"/>
<path d="M8.82,8a6.13,6.13,0,0,0,.53,4.12c.78,1.33,1.6,1.82,2.32,1.82a1.62,1.62,0,0,0,1.14-.75,2,2,0,0,0,.1-1.51,2.17,2.17,0,0,0-.56-.76l-.27-.27-.3-.32L11.53,10a4.72,4.72,0,0,1-.37-.43A5.32,5.32,0,0,1,10,6.15a6.12,6.12,0,0,1,.51-2.44A8.07,8.07,0,0,0,8.82,8Z" class="icon-quote-inner"/>
<path d="M6.85,14.16A2.76,2.76,0,0,1,4.72,15.5c-.7,0-2.09-.35-3.3-2.41A7.81,7.81,0,0,1,.71,8,9.49,9.49,0,0,1,2.84,2.91,7.58,7.58,0,0,1,7.56.5C8,.5,8.5.77,8.5,1s0,.26-.47.53A14.38,14.38,0,0,0,6.14,2.64,4.9,4.9,0,0,0,4.25,6.39,4.25,4.25,0,0,0,5.67,9.61a5.23,5.23,0,0,1,1.41,1.87A3.54,3.54,0,0,1,6.85,14.16Z" class="icon-quote-outer"/>
<path d="M1.82,8a6.13,6.13,0,0,0,.53,4.12c.78,1.33,1.6,1.82,2.32,1.82a1.62,1.62,0,0,0,1.14-.75,2,2,0,0,0,.1-1.51,2.17,2.17,0,0,0-.56-.76l-.27-.27-.3-.32L4.53,10a4.72,4.72,0,0,1-.37-.43A5.32,5.32,0,0,1,3,6.15a6.12,6.12,0,0,1,.51-2.44A8.07,8.07,0,0,0,1.82,8Z" class="icon-quote-inner"/></svg>
