<svg class="icon icon-download" xmlns="http://www.w3.org/2000/svg" viewBox="0 0 16 16" width="16" height="16" aria-label="Download icon">
    <path d="M8.3,13.22a.42.42,0,0,1-.3.14.54.54,0,0,1-.3-.1l-4.92-5A.42.42,0,0,1,2.64,8a.5.5,0,0,1,.1-.28L3,7.46a.32.32,0,0,1,.27-.13.41.41,0,0,1,.3.13l3.85,3.89V.9A.38.38,0,0,1,7.55.62.38.38,0,0,1,7.83.5h.34a.38.38,0,0,1,.28.12A.38.38,0,0,1,8.57.9V11.35l3.85-3.89a.41.41,0,0,1,.3-.13.32.32,0,0,1,.27.13l.27.24a.5.5,0,0,1,.1.28.53.53,0,0,1-.1.29Zm6.13,1.88a.41.41,0,0,1-.4.4H2a.41.41,0,0,1-.4-.4v-.27a.36.36,0,0,1,.12-.28A.38.38,0,0,1,2,14.43H14a.38.38,0,0,1,.28.12.36.36,0,0,1,.12.28Z"/>
</svg>
